<?xml version="1.0" encoding="utf-8"?>
<svg viewBox="889.5999755859375 346.6000061035156 259.9000244140625 296.4999694824219" width="259.9000244140625" height="296.4999694824219" xmlns="http://www.w3.org/2000/svg"><g transform="matrix(1, 0, 0, 1, 78, -45)"><g transform="matrix(1, 0, 0, 1, 0, 0)">
	<path d="M 932.7999877929688 475.29998779296875 L 869.2999877929688 416 L 926.9000244140625 527.9000244140625 Z" class="st0" style="fill: rgb(187, 128, 209);"/>
	<path d="M 1052.9000244140625 546.4000244140625 L 974.7000122070312 475.5 L 977.0999755859375 504.20001220703125 Z" class="st1" style="fill: rgb(147, 100, 204);"/>
	<path d="M 977.0999755859375 504.20001220703125 L 974.7000122070312 475.5 L 926.9000244140625 527.9000244140625 Z" class="st2" style="fill: rgb(206, 162, 221);"/>
	<path d="M 926.9000244140625 527.9000244140625 L 974.7000122070312 475.5 L 932.7999877929688 475.29998779296875 Z" class="st1" style="fill: rgb(147, 100, 204);"/>
	<path d="M 975.7999877929688 584.5999755859375 L 1013.5999755859375 557.2999877929688 L 977.0999755859375 504.20001220703125 Z" class="st3" style="fill: rgb(220, 168, 226);"/>
	<path d="M 1013.5999755859375 557.2999877929688 L 1052.9000244140625 546.4000244140625 L 977.0999755859375 504.20001220703125 Z" class="st0" style="fill: rgb(187, 128, 209);"/>
	<path d="M 970.5 640.5999755859375 L 975.7999877929688 584.5999755859375 L 924.9000244140625 648.4000244140625 Z" class="st2" style="fill: rgb(206, 162, 221);"/>
	<path d="M 828.4000244140625 638.2999877929688 L 863.5999755859375 645.0999755859375 L 825.0999755859375 611.9000244140625 Z" class="st4" style="fill: rgb(179, 79, 197);"/>
	<path d="M 924.9000244140625 648.4000244140625 L 975.7999877929688 584.5999755859375 L 898.7999877929688 589 Z" class="st5" style="fill: rgb(170, 123, 201);"/>
	<path d="M 859.7000122070312 572.7000122070312 L 898.7999877929688 589 L 926.9000244140625 527.9000244140625 Z" class="st0" style="fill: rgb(187, 128, 209);"/>
	<path d="M 926.9000244140625 527.9000244140625 L 975.7999877929688 584.5999755859375 L 977.0999755859375 504.20001220703125 Z" class="st6" style="fill: rgb(189, 155, 197);"/>
	<path d="M 898.7999877929688 589 L 975.7999877929688 584.5999755859375 L 926.9000244140625 527.9000244140625 Z" class="st7" style="fill: rgb(206, 162, 215);"/>
	<path d="M 974.7000122070312 475.5 L 869.2999877929688 416 L 932.7999877929688 475.29998779296875 Z" class="st2" style="fill: rgb(206, 162, 221);"/>
	<path d="M 970.5 640.5999755859375 L 1014.9000244140625 613.5999755859375 L 975.7999877929688 584.5999755859375 Z" class="st8" style="fill: rgb(168, 126, 177);"/>
	<path d="M 975.7999877929688 584.5999755859375 L 1014.9000244140625 613.5999755859375 L 1013.5999755859375 557.2999877929688 Z" class="st9" style="fill: rgb(205, 139, 218);"/>
	<path d="M 976.5999755859375 676 L 1014.9000244140625 613.5999755859375 L 970.5 640.5999755859375 Z" class="st10" style="fill: rgb(182, 135, 184);"/>
	<path d="M 869.2999877929688 416 L 866.0999755859375 487.6000061035156 L 926.9000244140625 527.9000244140625 Z" class="st11" style="fill: rgb(225, 156, 223);"/>
	<path d="M 1013.5999755859375 557.2999877929688 L 1014.9000244140625 613.5999755859375 L 1052.9000244140625 546.4000244140625 Z" class="st5" style="fill: rgb(170, 123, 201);"/>
	<path d="M 924.9000244140625 648.4000244140625 L 976.5999755859375 676 L 970.5 640.5999755859375 Z" class="st12" style="fill: rgb(189, 131, 202);"/>
	<path d="M 866.0999755859375 487.6000061035156 L 825.0999755859375 611.9000244140625 L 859.7000122070312 572.7000122070312 Z" class="st5" style="fill: rgb(170, 123, 201);"/>
	<path d="M 825.0999755859375 611.9000244140625 L 863.5999755859375 645.0999755859375 L 859.7000122070312 572.7000122070312 Z" class="st13" style="fill: rgb(163, 94, 181);"/>
	<path d="M 926.9000244140625 527.9000244140625 L 866.0999755859375 487.6000061035156 L 859.7000122070312 572.7000122070312 Z" class="st9" style="fill: rgb(205, 139, 218);"/>
	<path d="M 863.5999755859375 645.0999755859375 L 976.5999755859375 676 L 924.9000244140625 648.4000244140625 Z" class="st14" style="fill: rgb(144, 71, 153);"/>
	<path d="M 898.7999877929688 589 L 863.5999755859375 645.0999755859375 L 924.9000244140625 648.4000244140625 Z" class="st0" style="fill: rgb(187, 128, 209);"/>
	<path d="M 859.7000122070312 572.7000122070312 L 863.5999755859375 645.0999755859375 L 898.7999877929688 589 Z" class="st14" style="fill: rgb(144, 71, 153);"/>
</g><g class="st104" transform="matrix(1, 0, 0, 1, 0, 0)" style="opacity: 0.2;">
	<path d="M 934.5 459.20001220703125 L 862.0999755859375 391.6000061035156 L 927.7999877929688 519.2000122070312 Z" class="st112" style="fill: none; stroke: rgb(255, 255, 255); stroke-width: 1.1405; stroke-miterlimit: 10;"/>
	<path d="M 1071.5 540.2999877929688 L 982.2999877929688 459.3999938964844 L 985.0999755859375 492.20001220703125 Z" class="st112" style="fill: none; stroke: rgb(255, 255, 255); stroke-width: 1.1405; stroke-miterlimit: 10;"/>
	<path d="M 985.0999755859375 492.20001220703125 L 982.2999877929688 459.3999938964844 L 927.7999877929688 519.2000122070312 Z" class="st112" style="fill: none; stroke: rgb(255, 255, 255); stroke-width: 1.1405; stroke-miterlimit: 10;"/>
	<path d="M 927.7999877929688 519.2000122070312 L 982.2999877929688 459.3999938964844 L 934.5 459.20001220703125 Z" class="st112" style="fill: none; stroke: rgb(255, 255, 255); stroke-width: 1.1405; stroke-miterlimit: 10;"/>
	<path d="M 983.5999755859375 583.7999877929688 L 1026.5999755859375 552.7999877929688 L 985.0999755859375 492.20001220703125 Z" class="st112" style="fill: none; stroke: rgb(255, 255, 255); stroke-width: 1.1405; stroke-miterlimit: 10;"/>
	<path d="M 1026.5999755859375 552.7999877929688 L 1071.5 540.2999877929688 L 985.0999755859375 492.20001220703125 Z" class="st112" style="fill: none; stroke: rgb(255, 255, 255); stroke-width: 1.1405; stroke-miterlimit: 10;"/>
	<path d="M 977.4000244140625 647.7999877929688 L 983.5999755859375 583.7999877929688 L 925.5 656.7000122070312 Z" class="st112" style="fill: none; stroke: rgb(255, 255, 255); stroke-width: 1.1405; stroke-miterlimit: 10;"/>
	<path d="M 815.5 645.0999755859375 L 855.5999755859375 652.9000244140625 L 811.5999755859375 615 Z" class="st112" style="fill: none; stroke: rgb(255, 255, 255); stroke-width: 1.1405; stroke-miterlimit: 10;"/>
	<path d="M 925.5 656.7000122070312 L 983.5999755859375 583.7999877929688 L 895.7000122070312 588.9000244140625 Z" class="st112" style="fill: none; stroke: rgb(255, 255, 255); stroke-width: 1.1405; stroke-miterlimit: 10;"/>
	<path d="M 851.0999755859375 570.2999877929688 L 895.7000122070312 588.9000244140625 L 927.7999877929688 519.2000122070312 Z" class="st112" style="fill: none; stroke: rgb(255, 255, 255); stroke-width: 1.1405; stroke-miterlimit: 10;"/>
	<path d="M 927.7999877929688 519.2000122070312 L 983.5999755859375 583.7999877929688 L 985.0999755859375 492.20001220703125 Z" class="st112" style="fill: none; stroke: rgb(255, 255, 255); stroke-width: 1.1405; stroke-miterlimit: 10;"/>
	<path d="M 895.7000122070312 588.9000244140625 L 983.5999755859375 583.7999877929688 L 927.7999877929688 519.2000122070312 Z" class="st112" style="fill: none; stroke: rgb(255, 255, 255); stroke-width: 1.1405; stroke-miterlimit: 10;"/>
	<path d="M 982.2999877929688 459.3999938964844 L 862.0999755859375 391.6000061035156 L 934.5 459.20001220703125 Z" class="st112" style="fill: none; stroke: rgb(255, 255, 255); stroke-width: 1.1405; stroke-miterlimit: 10;"/>
	<path d="M 977.4000244140625 647.7999877929688 L 1028.199951171875 617 L 983.5999755859375 583.7999877929688 Z" class="st112" style="fill: none; stroke: rgb(255, 255, 255); stroke-width: 1.1405; stroke-miterlimit: 10;"/>
	<path d="M 983.5999755859375 583.7999877929688 L 1028.199951171875 617 L 1026.5999755859375 552.7999877929688 Z" class="st112" style="fill: none; stroke: rgb(255, 255, 255); stroke-width: 1.1405; stroke-miterlimit: 10;"/>
	<path d="M 984.4000244140625 688.0999755859375 L 1028.199951171875 617 L 977.4000244140625 647.7999877929688 Z" class="st112" style="fill: none; stroke: rgb(255, 255, 255); stroke-width: 1.1405; stroke-miterlimit: 10;"/>
	<path d="M 862.0999755859375 391.6000061035156 L 858.5 473.29998779296875 L 927.7999877929688 519.2000122070312 Z" class="st112" style="fill: none; stroke: rgb(255, 255, 255); stroke-width: 1.1405; stroke-miterlimit: 10;"/>
	<path d="M 1026.5999755859375 552.7999877929688 L 1028.199951171875 617 L 1071.5 540.2999877929688 Z" class="st112" style="fill: none; stroke: rgb(255, 255, 255); stroke-width: 1.1405; stroke-miterlimit: 10;"/>
	<path d="M 925.5 656.7000122070312 L 984.4000244140625 688.0999755859375 L 977.4000244140625 647.7999877929688 Z" class="st112" style="fill: none; stroke: rgb(255, 255, 255); stroke-width: 1.1405; stroke-miterlimit: 10;"/>
	<path d="M 858.5 473.29998779296875 L 811.5999755859375 615 L 851.0999755859375 570.2999877929688 Z" class="st112" style="fill: none; stroke: rgb(255, 255, 255); stroke-width: 1.1405; stroke-miterlimit: 10;"/>
	<path d="M 811.5999755859375 615 L 855.5999755859375 652.9000244140625 L 851.0999755859375 570.2999877929688 Z" class="st112" style="fill: none; stroke: rgb(255, 255, 255); stroke-width: 1.1405; stroke-miterlimit: 10;"/>
	<path d="M 927.7999877929688 519.2000122070312 L 858.5 473.29998779296875 L 851.0999755859375 570.2999877929688 Z" class="st112" style="fill: none; stroke: rgb(255, 255, 255); stroke-width: 1.1405; stroke-miterlimit: 10;"/>
	<path d="M 855.5999755859375 652.9000244140625 L 984.4000244140625 688.0999755859375 L 925.5 656.7000122070312 Z" class="st112" style="fill: none; stroke: rgb(255, 255, 255); stroke-width: 1.1405; stroke-miterlimit: 10;"/>
	<path d="M 895.7000122070312 588.9000244140625 L 855.5999755859375 652.9000244140625 L 925.5 656.7000122070312 Z" class="st112" style="fill: none; stroke: rgb(255, 255, 255); stroke-width: 1.1405; stroke-miterlimit: 10;"/>
	<path d="M 851.0999755859375 570.2999877929688 L 855.5999755859375 652.9000244140625 L 895.7000122070312 588.9000244140625 Z" class="st112" style="fill: none; stroke: rgb(255, 255, 255); stroke-width: 1.1405; stroke-miterlimit: 10;"/>
</g></g></svg>